<svg xmlns="http://www.w3.org/2000/svg" viewBox="0 0 158.084 53.349" height="201.635" width="597.482"><path class="lucy" stroke="#000" stroke-width=".265" d="M67.577 52.964c-.6-.273-2.064-1.371-3.253-2.442a480.51 480.51 0 00-3.936-3.5c-7.248-6.356-15.998-9.039-30.481-9.347l-6.482-.138-1.588 1.063c-.873.585-2.242 1.251-3.043 1.481-2.178.626-7.51 1.483-7.75 1.246-.115-.115.44-.763 1.234-1.442C15.631 37.021 20.78 28.91 23.696 21.9c.628-1.51.69-1.845.375-2.04-.208-.128-.616-.18-.909-.115-6.217 1.376-20.759 1.458-22.886.129-.745-.465.142-.835 3.686-1.535 3.255-.644 3.596-.665 5.254-.33 2.544.517 15.107.693 15.701.221.24-.19.915-1.441 1.502-2.782 2.025-4.62 4.828-8.178 8.802-11.173 2.483-1.871 3.893-2.427 8.346-3.289 5.414-1.048 6.875-1.115 8.3-.382 1.695.872 2.178 1.922 2.046 4.45-.131 2.51-.805 4.057-2.591 5.945-2.65 2.802-5.293 3.982-12.437 5.552-2.391.526-4.602 1.084-4.913 1.24-.365.183-.968 1.237-1.698 2.967-2.204 5.221-4.964 10.184-7.71 13.866-.513.687-.745 1.219-.594 1.361.145.136 1.19.072 2.497-.154 3.033-.522 15.06-.493 19.69.049 6.767.791 11.79 2.16 15.937 4.344 2.972 1.564 5.414 3.391 9.22 6.898 2.065 1.902 3.428 2.926 4.691 3.523.98.464 1.783.929 1.786 1.034.012.42-6.417 1.798-8.329 1.786-.436-.003-1.285-.228-1.885-.5zM38.281 15.256c4.535-2.271 6.964-5.396 6.97-8.964.004-3.209-.848-3.614-3.302-1.57-2.38 1.983-4.774 5.147-6.375 8.43-.788 1.616-1.434 3.015-1.434 3.108 0 .537 2.065.036 4.14-1.004zm81.743 35.884c-.268-.517-.423-1.488-.423-2.64 0-2.8.965-4.525 4.473-7.994 3.874-3.831 5.085-4.608 8.492-5.449 1.523-.376 2.97-.791 3.217-.923.47-.252 1.237-3.02.924-3.333-.097-.097-1.575.08-3.284.395-1.709.314-3.785.648-4.614.742-1.43.163-1.547.13-2.315-.637-.65-.65-.809-1.032-.812-1.953-.006-1.826-.336-2.09-1.373-1.102-.967.922-5.604 3.113-9.47 4.475-3.548 1.249-9.133 2.23-12.705 2.23-2.648 0-2.932-.05-3.544-.617l-.665-.616-4.31.895c-6.656 1.382-9.74 1.278-11.65-.395-.414-.364-.65-.348-2.38.16-5.076 1.495-10.666 2.286-13.15 1.861-2.27-.388-2.503-.53-3.188-1.946-.517-1.068-.57-1.545-.5-4.49.045-1.813-.003-3.379-.105-3.48-.102-.103-.93.184-1.842.637-1.533.762-6.16 1.87-9.396 2.251-1.132.134-1.549-.176-.63-.468.272-.086 2.981-1.658 6.02-3.493 3.038-1.835 6-3.607 6.583-3.94 1.607-.916 8.871-2.335 9.203-1.798.077.124-.152 1.535-.508 3.136-.5 2.245-.646 3.651-.638 6.158.012 3.597.231 4.254 1.613 4.827 1.089.45 2.023.014 3.651-1.708 2.203-2.329 3.61-5.892 3.715-9.41.036-1.208.175-1.814.467-2.036.69-.523 5.125-1.459 7.103-1.499l1.852-.037.084 1.166c.045.642-.103 2.343-.331 3.781-.786 4.962-.47 7.086 1.264 8.475.775.62 1.335.583 2.78-.185a34.93 34.93 0 012.464-1.166l1.234-.512.09-3.134c.103-3.645.379-4.387 2.891-7.776 1.706-2.3 1.453-2.17 6.193-3.184 2.287-.489 5.706-.709 7.937-.51.291.025 2.256-.32 4.366-.767 4.295-.911 4.767-.96 4.753-.488-.016.521-3.752 5.777-4.505 6.338-.756.563-6.328 1.791-8.148 1.796-.946.002-1.123-.073-.99-.42.483-1.26.456-1.641-.143-2.061-1.074-.752-1.751-.546-2.598.79-1.466 2.31-1.785 6.534-.729 9.625.508 1.487.695 1.745 1.403 1.945 1.196.336 5.823-1.697 7.715-3.39 1.55-1.388 2.42-1.69 6.917-2.409 1.544-.246 2.89-.52 2.99-.61.268-.234 1.069-4.289.884-4.473-.086-.086-1.141-.014-2.345.16-2.595.375-3.352.395-3.352.09 0-.297 5.657-4.23 6.728-4.678 1.066-.445 6.24-1.446 7.479-1.446h.95l-.156 1.654c-.086.91-.4 2.666-.698 3.902-.57 2.368-.717 4.763-.293 4.763.275 0 1.343-1.35 1.864-2.358.289-.558 1.295-6.276 1.316-7.479.012-.646.68-1.216 1.803-1.537 1.82-.52 6.919-1.316 7.356-1.148.478.183.468.365-.273 5.246-.22 1.455-.526 4.127-.678 5.936-.245 2.923-.609 5.206-1.192 7.492-.173.677-.13.727.638.727.453 0 2.46-.298 4.46-.662 4.435-.807 7.795-1.191 8.089-.925.439.399-1.193.753-10.473 2.272-1.479.242-2.797.61-3.089.861-.28.241-.835 1.272-1.234 2.29-1.24 3.168-4.941 8.907-7.14 11.074-.817.805-2.367 1.677-3.675 2.07-2.121.635-7.406 1.589-9.573 1.726l-2.421.154zm9.413-4.482c.743-.8 2.92-4.02 3.983-5.887 1.686-2.962.977-3.192-1.645-.533-2.123 2.153-3.89 5.327-3.603 6.47.216.86.429.851 1.265-.05z"/></svg>