<?xml version="1.0" encoding="UTF-8" standalone="no"?>
<svg
   xmlns:dc="http://purl.org/dc/elements/1.1/"
   xmlns:cc="http://creativecommons.org/ns#"
   xmlns:rdf="http://www.w3.org/1999/02/22-rdf-syntax-ns#"
   xmlns:svg="http://www.w3.org/2000/svg"
   xmlns="http://www.w3.org/2000/svg"
   xmlns:sodipodi="http://sodipodi.sourceforge.net/DTD/sodipodi-0.dtd"
   xmlns:inkscape="http://www.inkscape.org/namespaces/inkscape"
   sodipodi:docname="lucy.svg"
   inkscape:version="1.0beta2 (2b71d25, 2019-12-03)"
   id="svg8"
   version="1.1"
   viewBox="0 0 158.08374 53.349167"
   height="53.349167mm"
   width="158.08374mm">
   <path
      class="lucy"
      inkscape:connector-curvature="0"
      id="path252"
      stroke="#000000"
      stroke-width="0.264583"
      d="m 67.577222,52.963873 c -0.60017,-0.27254 -2.064255,-1.37126 -3.253517,-2.44159 -1.18926,-1.07033 -2.960397,-2.64586 -3.93586,-3.50118 -7.247496,-6.35486 -15.99824,-9.03804 -30.480857,-9.34612 l -6.482292,-0.13789 -1.5875,1.06304 c -0.873125,0.58467 -2.242344,1.25118 -3.042708,1.48114 -2.178323,0.62586 -7.510474,1.48259 -7.750267,1.24525 -0.115303,-0.11412 0.440117,-0.7626 1.234267,-1.44106 3.352736,-2.86433 8.501523,-10.97532 11.417742,-17.98659 0.628137,-1.51019 0.689557,-1.84475 0.37442,-2.03952 -0.207336,-0.12814 -0.616088,-0.18006 -0.908339,-0.11538 -6.216925,1.37588 -20.7592797,1.45783 -22.88644464,0.12897 -0.74448096,-0.46509 0.142456,-0.83449 3.68650094,-1.53538 3.254545,-0.64365 3.595912,-0.66501 5.2538083,-0.32877 2.5435374,0.51585 15.1068924,0.69232 15.7010804,0.22054 0.238823,-0.18962 0.914781,-1.44164 1.502126,-2.78226 2.024251,-4.62036 4.827167,-8.1785489 8.801772,-11.1735089 2.482914,-1.87093 3.89264,-2.42643 8.345483,-3.28848997 5.414306,-1.04821 6.875814,-1.11548 8.300767,-0.38206 1.694934,0.87236997 2.177574,1.92216997 2.045521,4.44925997 -0.131197,2.51069 -0.8053,4.0575195 -2.591174,5.9458089 -2.649868,2.80185 -5.293061,3.98192 -12.4363,5.55227 -2.39154,0.52575 -4.602652,1.08369 -4.91358,1.23987 -0.364569,0.18312 -0.967573,1.23685 -1.69804,2.96727 -2.203789,5.22063 -4.963427,10.18325 -7.710247,13.86524 -0.512942,0.68757 -0.744484,1.21899 -0.593225,1.36154 0.144278,0.13597 1.189146,0.0716 2.497045,-0.15387 3.032758,-0.52279 15.059211,-0.49328 19.689123,0.0483 6.767478,0.79164 11.790389,2.16066 15.937346,4.34382 2.972551,1.5649 5.414479,3.39178 9.220409,6.89809 2.06512,1.90255 3.4276,2.92596 4.69111,3.52366 0.97938,0.4633 1.78305,0.92834 1.78594,1.03341 0.0115,0.41953 -6.41759,1.79863 -8.32914,1.78667 -0.43656,-0.003 -1.2848,-0.22795 -1.88497,-0.50049 z M 38.280614,15.256343 c 4.535162,-2.27149 6.964508,-5.3962397 6.969622,-8.9646889 0.0046,-3.20869 -0.847259,-3.6139 -3.300799,-1.57011 -2.381348,1.98366 -4.773959,5.1474692 -6.375103,8.4299589 -0.788707,1.61693 -1.434013,3.01591 -1.434013,3.10886 0,0.53617 2.064991,0.0354 4.140293,-1.00402 z m 81.743086,35.88389 c -0.2675,-0.51729 -0.42297,-1.48799 -0.42297,-2.64089 0,-2.79889 0.96557,-4.52428 4.47299,-7.9929 3.87451,-3.83165 5.08527,-4.60861 8.49199,-5.44944 1.52282,-0.37585 2.9705,-0.79133 3.21708,-0.92329 0.46968,-0.25137 1.23722,-3.01911 0.92408,-3.33224 -0.0972,-0.0972 -1.57481,0.0802 -3.28361,0.39424 -1.7088,0.31402 -3.78504,0.64803 -4.61387,0.74224 -1.43075,0.16263 -1.54785,0.13042 -2.31511,-0.63684 -0.64996,-0.64996 -0.80893,-1.03221 -0.81218,-1.95297 -0.006,-1.82661 -0.33587,-2.09085 -1.37347,-1.10179 -0.96706,0.92182 -5.60356,3.11234 -9.4704,4.4743 -3.5469,1.24927 -9.1325,2.22954 -12.70398,2.22954 -2.647957,0 -2.932554,-0.0495 -3.544028,-0.61617 l -0.66485,-0.61617 -4.30972,0.89503 c -6.65659,1.38241 -9.74154,1.27776 -11.64985,-0.39521 -0.4152,-0.364 -0.65162,-0.348 -2.38125,0.16117 -5.07519,1.49401 -10.66509,2.28475 -13.14956,1.86011 -2.269246,-0.38785 -2.503328,-0.53071 -3.18834,-1.94575 -0.517046,-1.06808 -0.570079,-1.54545 -0.498851,-4.49041 0.04384,-1.81241 -0.0037,-3.37871 -0.105688,-3.48067 -0.101965,-0.10197 -0.930878,0.18509 -1.842029,0.63789 -1.533022,0.76185 -6.160082,1.87052 -9.3957,2.25125 -1.13234,0.13325 -1.548914,-0.17612 -0.629913,-0.4678 0.272011,-0.0863 2.980683,-1.65827 6.019271,-3.49319 3.038586,-1.83493 6.000954,-3.60772 6.583037,-3.93955 1.607543,-0.91641 8.871373,-2.33586 9.203483,-1.79848 0.0766,0.12399 -0.15216,1.53489 -0.50844,3.13534 -0.49989,2.24559 -0.64543,3.65162 -0.6375,6.15886 0.0114,3.59637 0.2311,4.25392 1.61265,4.82617 1.08869,0.45095 2.02309,0.014 3.65118,-1.7075 2.20274,-2.32907 3.60902,-5.89191 3.71435,-9.41034 0.0361,-1.20742 0.17547,-1.81386 0.46765,-2.03554 0.6894,-0.52306 5.12439,-1.45899 7.10287,-1.49894 l 1.85209,-0.0374 0.0834,1.16621 c 0.0459,0.64142 -0.10295,2.34283 -0.33072,3.78091 -0.78592,4.96204 -0.46909,7.08574 1.26429,8.4746 0.77493,0.62091 1.33505,0.58366 2.7805,-0.1849 0.67629,-0.35959 1.78494,-0.88415 2.46366,-1.16569 l 1.23405,-0.5119 0.0889,-3.13378 c 0.10338,-3.64538 0.37941,-4.38755 2.892218,-7.77659 1.70565,-2.30041 1.4529,-2.17047 6.19249,-3.18356 2.28694,-0.48883 5.70607,-0.70882 7.9375,-0.51069 0.29104,0.0258 2.25557,-0.31913 4.36562,-0.76661 4.29544,-0.91093 4.76676,-0.95927 4.75252,-0.48748 -0.0157,0.52099 -3.75124,5.77673 -4.50428,6.33736 -0.75667,0.56333 -6.32872,1.79141 -8.1479,1.7958 -0.9465,0.002 -1.12385,-0.0727 -0.99106,-0.41868 0.48357,-1.26018 0.45713,-1.64204 -0.14279,-2.06224 -1.07322,-0.75171 -1.75059,-0.54572 -2.59764,0.78993 -1.46542,2.31072 -1.78522,6.53484 -0.72875,9.62582 0.50801,1.48633 0.69462,1.74492 1.40303,1.94423 1.19618,0.33653 5.82244,-1.69617 7.71469,-3.38971 1.55023,-1.38743 2.42038,-1.69042 6.91707,-2.40858 1.54407,-0.2466 2.88994,-0.52089 2.99081,-0.60953 0.26754,-0.23511 1.06821,-4.28942 0.88356,-4.47406 -0.0861,-0.0861 -1.14143,-0.0141 -2.34525,0.15996 -2.59547,0.37527 -3.35193,0.39557 -3.35193,0.09 0,-0.29701 5.65696,-4.22995 6.72761,-4.6773 1.06662,-0.44566 6.2411,-1.4462 7.47929,-1.4462 h 0.95087 l -0.15653,1.65364 c -0.0861,0.90951 -0.40014,2.66568 -0.69787,3.90261 -0.56995,2.36788 -0.71773,4.7625 -0.29391,4.7625 0.27552,0 1.34378,-1.35089 1.86449,-2.35777 0.28885,-0.55856 1.29506,-6.27624 1.31617,-7.47906 0.0113,-0.64566 0.68024,-1.21594 1.80267,-1.53687 1.81999,-0.52037 6.91871,-1.31648 7.35623,-1.14858 0.4778,0.18335 0.46832,0.36564 -0.27288,5.24624 -0.221,1.4552 -0.52612,4.12661 -0.67806,5.93646 -0.24532,2.92236 -0.60884,5.20588 -1.19252,7.49114 -0.17312,0.67782 -0.12944,0.7276 0.63845,0.7276 0.45336,0 2.46056,-0.29787 4.46045,-0.66194 4.43461,-0.80729 7.79472,-1.19167 8.08798,-0.92522 0.43914,0.39898 -1.19283,0.75309 -10.47222,2.27229 -1.47922,0.24217 -2.79781,0.60964 -3.08916,0.86089 -0.27958,0.2411 -0.83477,1.2718 -1.23375,2.29044 -1.24048,3.16706 -4.94173,8.90669 -7.14048,11.07295 -0.81726,0.80518 -2.36644,1.67774 -3.67533,2.07009 -2.12086,0.63575 -7.40593,1.58908 -9.57259,1.72673 l -2.42131,0.15382 z m 9.41346,-4.48223 c 0.74241,-0.80025 2.92041,-4.01923 3.98321,-5.88698 1.68561,-2.96228 0.97696,-3.19165 -1.64544,-0.53258 -2.12251,2.15219 -3.88989,5.32623 -3.60277,6.4702 0.21564,0.85921 0.42883,0.85067 1.265,-0.0506 z"/>
</svg>
